<svg width="22" height="21" viewBox="0 0 22 21" fill="none" xmlns="http://www.w3.org/2000/svg">
<path fill-rule="evenodd" clip-rule="evenodd" d="M9.59011 6.9796C8.62723 6.46134 8.02906 5.46061 8.02906 4.36789V2.54973H6.8433V1.36398H8.02906V0.178223H13.9578V1.36398H15.1436V2.54973H13.9578V4.36789C13.9578 5.46061 13.3597 6.46134 12.3968 6.9796C11.9045 7.24457 11.5863 7.82975 11.5863 8.47037V9.70379H12.7721V10.8895H9.21481V9.70379H10.4006V8.47037C10.4006 7.82975 10.0824 7.24457 9.59011 6.9796ZM12.7721 1.36398H9.21481V4.36789C9.21481 5.02365 9.57398 5.62432 10.1521 5.93546C10.4833 6.11372 10.7674 6.36134 10.9934 6.65846C11.2195 6.36131 11.5036 6.11368 11.8348 5.93546C12.4129 5.62432 12.7721 5.02365 12.7721 4.36789V1.36398ZM4.43227 18.6365C4.43227 19.6172 3.63437 20.4151 2.65363 20.4151C1.67289 20.4151 0.875 19.6172 0.875 18.6365C0.875 17.8636 1.37069 17.2046 2.06076 16.9598V14.4468H4.43227V12.0753H17.5546V14.4468H19.9261V16.9598C20.6162 17.2046 21.1119 17.8636 21.1119 18.6365C21.1119 19.6172 20.314 20.4151 19.3333 20.4151C18.3525 20.4151 17.5546 19.6172 17.5546 18.6365C17.5546 17.8636 18.0503 17.2046 18.7404 16.9598V15.6326H15.1831V16.9598C15.8732 17.2046 16.3689 17.8636 16.3689 18.6365C16.3689 19.6172 15.571 20.4151 14.5902 20.4151C13.6095 20.4151 12.8116 19.6172 12.8116 18.6365C12.8116 17.8636 13.3073 17.2046 13.9974 16.9598V14.4468H16.3689V13.2611H5.61802V14.4468H7.98953V16.9598C8.6796 17.2046 9.17529 17.8636 9.17529 18.6365C9.17529 19.6172 8.37739 20.4151 7.39666 20.4151C6.41592 20.4151 5.61802 19.6172 5.61802 18.6365C5.61802 17.8636 6.11371 17.2046 6.80378 16.9598V15.6326H3.24651V16.9598C3.93658 17.2046 4.43227 17.8636 4.43227 18.6365ZM7.98953 18.6365C7.98953 18.3096 7.72357 18.0436 7.39666 18.0436C7.06974 18.0436 6.80378 18.3096 6.80378 18.6365C6.80378 18.9634 7.06974 19.2294 7.39666 19.2294C7.72357 19.2294 7.98953 18.9634 7.98953 18.6365ZM13.9974 18.6365C13.9974 18.9634 14.2633 19.2294 14.5902 19.2294C14.9172 19.2294 15.1831 18.9634 15.1831 18.6365C15.1831 18.3096 14.9172 18.0436 14.5902 18.0436C14.2633 18.0436 13.9974 18.3096 13.9974 18.6365ZM19.9261 18.6365C19.9261 18.3096 19.6602 18.0436 19.3333 18.0436C19.0063 18.0436 18.7404 18.3096 18.7404 18.6365C18.7404 18.9634 19.0063 19.2294 19.3333 19.2294C19.6602 19.2294 19.9261 18.9634 19.9261 18.6365ZM3.24651 18.6365C3.24651 18.3096 2.98055 18.0436 2.65363 18.0436C2.32672 18.0436 2.06076 18.3096 2.06076 18.6365C2.06076 18.9634 2.32672 19.2294 2.65363 19.2294C2.98055 19.2294 3.24651 18.9634 3.24651 18.6365Z" fill="#F15A24"/>
</svg>
