<svg width="21" height="21" viewBox="0 0 21 21" fill="none" xmlns="http://www.w3.org/2000/svg">
<path fill-rule="evenodd" clip-rule="evenodd" d="M5.09504 5.05922C4.74595 5.05922 4.46264 4.77591 4.46264 4.42682V2.95129H2.56544C1.98445 2.95129 1.51139 3.4242 1.51139 4.00519V6.74571H19.2187V4.00519C19.2187 3.4242 18.7456 2.95129 18.1646 2.95129H16.2674V4.42682C16.2674 4.77591 15.9841 5.05922 15.635 5.05922C15.2859 5.05922 15.0026 4.77591 15.0026 4.42682V2.95129H5.72744V4.42682C5.72744 4.77591 5.44413 5.05922 5.09504 5.05922ZM15.0026 1.68648H5.72744V0.632403C5.72744 0.283315 5.44413 0 5.09504 0C4.74595 0 4.46264 0.283315 4.46264 0.632403V1.68648H2.56544C1.28628 1.68648 0.246582 2.72603 0.246582 4.00519V7.37811V17.9181C0.246582 19.1972 1.28628 20.2369 2.56544 20.2369H18.1646C19.4438 20.2369 20.4835 19.1972 20.4835 17.9181V7.37811V4.00519C20.4835 2.72603 19.4438 1.68648 18.1646 1.68648H16.2674V0.632403C16.2674 0.283315 15.9841 0 15.635 0C15.2859 0 15.0026 0.283315 15.0026 0.632403V1.68648ZM1.51139 8.01051H19.2187V17.9181C19.2187 18.499 18.7456 18.9721 18.1646 18.9721H2.56544C1.98445 18.9721 1.51139 18.499 1.51139 17.9181V8.01051ZM8.87953 9.66533C8.70634 9.66535 8.54026 9.73415 8.4178 9.85661C8.29534 9.97907 8.22653 10.1452 8.22652 10.3183V12.4405C8.22653 12.6137 8.29534 12.7798 8.4178 12.9022C8.54026 13.0247 8.70634 13.0935 8.87953 13.0935H11.8506C12.0237 13.0935 12.1898 13.0247 12.3123 12.9022C12.4348 12.7798 12.5036 12.6137 12.5036 12.4405V10.3183C12.5036 10.1452 12.4348 9.97907 12.3123 9.85661C12.1898 9.73415 12.0237 9.66535 11.8506 9.66533H8.87953ZM9.53255 10.9714H11.1975V11.7875H9.53255V10.9714ZM2.96332 9.85661C3.08578 9.73415 3.25187 9.66535 3.42506 9.66533H6.39608C6.56927 9.66535 6.73536 9.73415 6.85782 9.85661C6.98028 9.97907 7.04908 10.1452 7.0491 10.3183V12.4405C7.04908 12.6137 6.98028 12.7798 6.85782 12.9022C6.73536 13.0247 6.56927 13.0935 6.39608 13.0935H3.42506C3.25187 13.0935 3.08578 13.0247 2.96332 12.9022C2.84086 12.7798 2.77206 12.6137 2.77204 12.4405V10.3183C2.77206 10.1452 2.84086 9.97907 2.96332 9.85661ZM5.74307 10.9714H4.07807V11.7875H5.74307V10.9714ZM14.334 9.66533C14.1608 9.66535 13.9947 9.73415 13.8723 9.85661C13.7498 9.97907 13.681 10.1452 13.681 10.3183V12.4405C13.681 12.6137 13.7498 12.7798 13.8723 12.9022C13.9947 13.0247 14.1608 13.0935 14.334 13.0935H17.305C17.4782 13.0935 17.6443 13.0247 17.7668 12.9022C17.8892 12.7798 17.958 12.6137 17.958 12.4405V10.3183C17.958 10.1452 17.8892 9.97907 17.7668 9.85661C17.6443 9.73415 17.4782 9.66535 17.305 9.66533H14.334ZM14.987 10.9714H16.652V11.7875H14.987V10.9714ZM8.4178 14.3032C8.54026 14.1807 8.70634 14.1119 8.87953 14.1119H11.8506C12.0237 14.1119 12.1898 14.1807 12.3123 14.3032C12.4348 14.4257 12.5036 14.5917 12.5036 14.7649V16.8871C12.5036 17.0603 12.4348 17.2264 12.3123 17.3488C12.1898 17.4713 12.0237 17.5401 11.8506 17.5401H8.87953C8.70634 17.5401 8.54026 17.4713 8.4178 17.3488C8.29534 17.2264 8.22653 17.0603 8.22652 16.8871V14.7649C8.22653 14.5917 8.29534 14.4257 8.4178 14.3032ZM11.1975 15.4179H9.53255V16.2341H11.1975V15.4179ZM3.42506 14.1119C3.25187 14.1119 3.08578 14.1807 2.96332 14.3032C2.84086 14.4257 2.77206 14.5917 2.77204 14.7649V16.8871C2.77206 17.0603 2.84086 17.2264 2.96332 17.3488C3.08578 17.4713 3.25187 17.5401 3.42506 17.5401H6.39608C6.56927 17.5401 6.73536 17.4713 6.85782 17.3488C6.98028 17.2264 7.04908 17.0603 7.0491 16.8871V14.7649C7.04908 14.5917 6.98028 14.4257 6.85782 14.3032C6.73536 14.1807 6.56927 14.1119 6.39608 14.1119H3.42506ZM4.07807 15.4179H5.74307V16.2341H4.07807V15.4179ZM13.8723 14.3032C13.9947 14.1807 14.1608 14.1119 14.334 14.1119H17.305C17.4782 14.1119 17.6443 14.1807 17.7668 14.3032C17.8892 14.4257 17.958 14.5917 17.958 14.7649V16.8871C17.958 17.0603 17.8892 17.2264 17.7668 17.3488C17.6443 17.4713 17.4782 17.5401 17.305 17.5401H14.334C14.1608 17.5401 13.9947 17.4713 13.8723 17.3488C13.7498 17.2264 13.681 17.0603 13.681 16.8871V14.7649C13.681 14.5917 13.7498 14.4257 13.8723 14.3032ZM16.652 15.4179H14.987V16.2341H16.652V15.4179Z" fill="#F15A24"/>
</svg>
