<svg width="20" height="18" viewBox="0 0 20 18" fill="none" xmlns="http://www.w3.org/2000/svg">
<path fill-rule="evenodd" clip-rule="evenodd" d="M8.37903 2.63538C8.37903 1.17987 10.9805 0 14.1896 0C17.3986 0 20.0001 1.17987 20.0001 2.63538V3.20692C20.0001 4.66243 17.3986 5.8423 14.1896 5.8423C10.9805 5.8423 8.37903 4.66243 8.37903 3.20692V2.63538ZM7.42987 10.2019C6.91581 10.2695 6.37255 10.3058 5.81053 10.3058C2.60147 10.3058 0 9.12578 0 7.67032V7.09879C0 5.64328 2.60147 4.4634 5.81053 4.4634C6.37255 4.4634 6.91586 4.49971 7.42987 4.56723V10.2019ZM7.42987 13.1441C6.91581 13.2116 6.37255 13.2479 5.81053 13.2479C2.60147 13.2479 0 12.068 0 10.6125V10.0409C0 9.85594 0.0422291 9.67547 0.122205 9.50118C0.671382 10.6977 3.00937 11.5968 5.81053 11.5968C6.3727 11.5968 6.91571 11.56 7.42987 11.4925V13.1441ZM7.42988 14.5631V14.4347C6.91571 14.5023 6.3727 14.5391 5.81053 14.5391C3.00937 14.5391 0.671382 13.64 0.122205 12.4435C0.0422291 12.6177 0 12.7982 0 12.9832V13.5547C0 15.0103 2.60147 16.1901 5.81053 16.1901C6.45228 16.1901 7.06953 16.1428 7.64675 16.0557C7.50368 15.763 7.42988 15.4544 7.42988 15.1346V14.5631ZM14.1896 7.13365C11.3884 7.13365 9.05041 6.23464 8.50124 5.03803C8.42126 5.21228 8.37903 5.39275 8.37903 5.5778V6.14933C8.37903 7.60484 10.9805 8.78472 14.1896 8.78472C17.3986 8.78472 20.0001 7.60484 20.0001 6.14933V5.5778C20.0001 5.39275 19.9579 5.21228 19.8779 5.03803C19.3287 6.23464 16.9907 7.13365 14.1896 7.13365ZM8.50124 7.98006C9.05041 9.17661 11.3884 10.0757 14.1896 10.0757C16.9907 10.0757 19.3287 9.17666 19.8779 7.98006C19.9579 8.1543 20.0001 8.33477 20.0001 8.51982V9.09136C20.0001 10.5469 17.3986 11.7268 14.1896 11.7268C10.9805 11.7268 8.37903 10.5469 8.37903 9.09136V8.51982C8.37903 8.33477 8.42126 8.1543 8.50124 7.98006ZM14.1896 13.1768C11.3884 13.1768 9.05041 12.2777 8.50124 11.0812C8.42126 11.2554 8.37903 11.4359 8.37903 11.6209V12.1925C8.37903 13.648 10.9805 14.8278 14.1896 14.8278C17.3986 14.8278 20.0001 13.648 20.0001 12.1925V11.6209C20.0001 11.4359 19.9579 11.2554 19.8779 11.0812C19.3287 12.2777 16.9907 13.1768 14.1896 13.1768ZM8.50124 14.0235C9.05041 15.22 11.3884 16.1191 14.1896 16.1191C16.9907 16.1191 19.3287 15.22 19.8779 14.0234C19.9579 14.1976 20.0001 14.3781 20.0001 14.5631V15.1347C20.0001 16.5902 17.3986 17.7701 14.1896 17.7701C10.9805 17.7701 8.37903 16.5902 8.37903 15.1347V14.5632C8.37903 14.3783 8.42126 14.1978 8.50124 14.0235Z" fill="#F15A24"/>
</svg>
