<svg width="20" height="18" viewBox="0 0 20 18" fill="none" xmlns="http://www.w3.org/2000/svg">
<path fill-rule="evenodd" clip-rule="evenodd" d="M11.6211 2.63538C11.6211 1.17987 9.01962 0 5.81056 0C2.60155 0 3.05176e-05 1.17987 3.05176e-05 2.63538V3.20692C3.05176e-05 4.66243 2.60155 5.8423 5.81056 5.8423C9.01962 5.8423 11.6211 4.66243 11.6211 3.20692V2.63538ZM12.5702 10.2019C13.0843 10.2695 13.6276 10.3058 14.1896 10.3058C17.3987 10.3058 20.0001 9.12578 20.0001 7.67032V7.09879C20.0001 5.64328 17.3987 4.4634 14.1896 4.4634C13.6276 4.4634 13.0843 4.49971 12.5702 4.56723V10.2019ZM12.5702 13.1441C13.0843 13.2116 13.6276 13.2479 14.1896 13.2479C17.3987 13.2479 20.0001 12.068 20.0001 10.6125V10.0409C20.0001 9.85594 19.9579 9.67547 19.8779 9.50118C19.3287 10.6977 16.9908 11.5968 14.1896 11.5968C13.6274 11.5968 13.0844 11.56 12.5702 11.4925V13.1441ZM12.5702 14.5631V14.4347C13.0844 14.5023 13.6274 14.5391 14.1896 14.5391C16.9908 14.5391 19.3287 13.64 19.8779 12.4435C19.9579 12.6177 20.0001 12.7982 20.0001 12.9832V13.5547C20.0001 15.0103 17.3987 16.1901 14.1896 16.1901C13.5478 16.1901 12.9306 16.1428 12.3534 16.0557C12.4964 15.763 12.5702 15.4544 12.5702 15.1346V14.5631ZM5.81056 7.13365C8.61172 7.13365 10.9497 6.23464 11.4989 5.03803C11.5789 5.21228 11.6211 5.39275 11.6211 5.5778V6.14933C11.6211 7.60484 9.01962 8.78472 5.81056 8.78472C2.60155 8.78472 3.05176e-05 7.60484 3.05176e-05 6.14933V5.5778C3.05176e-05 5.39275 0.0422592 5.21228 0.122236 5.03803C0.671413 6.23464 3.0094 7.13365 5.81056 7.13365ZM11.4989 7.97998C10.9497 9.17654 8.61172 10.0756 5.81056 10.0756C3.0094 10.0756 0.671417 9.17659 0.12224 7.97998C0.042263 8.15423 3.43323e-05 8.33469 3.43323e-05 8.51975V9.09128C3.43323e-05 10.5468 2.60155 11.7267 5.81056 11.7267C9.01962 11.7267 11.6211 10.5468 11.6211 9.09128V8.51975C11.6211 8.33469 11.5789 8.15423 11.4989 7.97998ZM5.81056 13.1768C8.61172 13.1768 10.9497 12.2777 11.4989 11.0812C11.5789 11.2554 11.6211 11.4359 11.6211 11.6209V12.1925C11.6211 13.648 9.01962 14.8278 5.81056 14.8278C2.60155 14.8278 3.05176e-05 13.648 3.05176e-05 12.1925V11.6209C3.05176e-05 11.4359 0.0422592 11.2554 0.122236 11.0812C0.671413 12.2777 3.0094 13.1768 5.81056 13.1768ZM11.4989 14.0235C10.9497 15.22 8.61172 16.1191 5.81056 16.1191C3.0094 16.1191 0.671413 15.22 0.122236 14.0234C0.0422592 14.1976 3.05176e-05 14.3781 3.05176e-05 14.5631V15.1347C3.05176e-05 16.5902 2.60155 17.7701 5.81056 17.7701C9.01962 17.7701 11.6211 16.5902 11.6211 15.1347V14.5632C11.6211 14.3783 11.5789 14.1978 11.4989 14.0235Z" fill="#F15A24"/>
</svg>
