<svg width="21" height="19" viewBox="0 0 21 19" fill="none" xmlns="http://www.w3.org/2000/svg">
<path fill-rule="evenodd" clip-rule="evenodd" d="M10.8449 2.86995C10.8449 2.96548 10.861 2.99726 11.0606 3.18457C11.308 3.41623 11.6813 3.76626 11.6813 4.43795C11.6813 4.92008 11.4889 5.23644 11.2889 5.46228H12.2458C13.1836 5.46228 13.9183 6.19689 13.9183 7.13474V7.72009H15.0472C17.9635 7.72009 20.3364 10.0929 20.3364 13.0093C20.3364 15.9256 17.9636 18.2984 15.0472 18.2984C13.5547 18.2984 12.1492 17.6773 11.1447 16.5842H9.29117C8.28664 17.6773 6.88093 18.2984 5.38866 18.2984C2.4723 18.2984 0.0994873 15.9256 0.0994873 13.0093C0.0994873 10.0929 2.4723 7.72009 5.38866 7.72009H6.5176V7.13474C6.5176 6.19689 7.25221 5.46228 8.19006 5.46228H9.68893C9.81514 5.13962 10.0377 4.93101 10.2029 4.77611L10.2031 4.77597C10.4021 4.58949 10.4272 4.55166 10.4272 4.43791C10.4272 4.32416 10.4021 4.28633 10.2031 4.09985L10.2029 4.09972C9.95917 3.87122 9.59074 3.52586 9.59074 2.86995C9.59074 2.21418 9.95964 1.86361 10.2038 1.63156L10.2041 1.63127C10.4 1.44519 10.427 1.40527 10.427 1.30199C10.427 0.955552 10.7078 0.674805 11.0542 0.674805C11.4006 0.674805 11.6813 0.955591 11.6813 1.30199C11.6813 1.95803 11.3121 2.30861 11.0678 2.54067C10.8719 2.72675 10.8449 2.76667 10.8449 2.86995ZM12.6639 7.72009H7.77196V7.13474C7.77196 6.89641 7.95176 6.71665 8.19006 6.71665H12.2458C12.4843 6.71665 12.6639 6.89645 12.6639 7.13474V7.72009ZM15.047 17.0443C13.8305 17.0443 12.689 16.503 11.9155 15.5593C11.7963 15.4141 11.6182 15.3298 11.4305 15.3298H9.0054C8.81766 15.3298 8.63956 15.414 8.52039 15.5591C7.74665 16.5028 6.6052 17.0441 5.3887 17.0441C3.16391 17.0441 1.35386 15.2341 1.35386 13.0092C1.35386 10.7844 3.16387 8.97442 5.38866 8.97466H15.0469C17.2717 8.97466 19.0818 10.7847 19.0818 13.0095C19.0818 15.2343 17.2718 17.0443 15.047 17.0443ZM5.13779 10.3961C4.7914 10.3961 4.51061 10.6768 4.51061 11.0232V12.3403H3.19351C2.84711 12.3403 2.56632 12.621 2.56632 12.9674C2.56632 13.3139 2.84711 13.5946 3.19351 13.5946H4.51061V14.9117C4.51061 15.2581 4.79136 15.5389 5.13779 15.5389C5.48423 15.5389 5.76498 15.2582 5.76498 14.9117V13.5946H7.08199C7.42839 13.5946 7.70917 13.3138 7.70917 12.9674C7.70917 12.621 7.42839 12.3403 7.08199 12.3403H5.76498V11.0232C5.76498 10.6768 5.48419 10.3961 5.13779 10.3961ZM15.0263 9.53913C14.346 9.53913 13.7928 10.0923 13.7928 10.7724C13.7928 11.4526 14.3459 12.0058 15.0263 12.0058C15.7063 12.0058 16.2597 11.4527 16.2595 10.7724C16.2595 10.0923 15.7063 9.53913 15.0263 9.53913ZM15.0051 10.7724C15.0051 10.7609 15.0146 10.7514 15.0263 10.7514C15.0378 10.7514 15.0472 10.7609 15.047 10.7724C15.0467 10.7958 15.0049 10.7954 15.0051 10.7724ZM13.7928 14.9535C13.7928 14.2735 14.346 13.7203 15.0263 13.7203C15.7063 13.7203 16.2595 14.2735 16.2595 14.9535C16.2597 15.6339 15.7063 16.187 15.0263 16.187C14.3459 16.187 13.7928 15.6338 13.7928 14.9535ZM15.0263 14.9326C15.0146 14.9326 15.0051 14.942 15.0051 14.9535C15.0049 14.9766 15.0467 14.9769 15.047 14.9535C15.0472 14.942 15.0378 14.9326 15.0263 14.9326ZM17.1168 11.6297C16.4365 11.6297 15.8834 12.1829 15.8834 12.8629C15.8834 13.5432 16.4365 14.0964 17.1168 14.0964C17.7969 14.0964 18.3503 13.5432 18.35 12.8629C18.3501 12.1829 17.7969 11.6297 17.1168 11.6297ZM17.0957 12.8629C17.0957 12.8514 17.1051 12.842 17.1168 12.842C17.1283 12.842 17.1377 12.8514 17.1375 12.8629C17.1373 12.8862 17.0955 12.8857 17.0957 12.8629ZM11.7022 12.8629C11.7022 12.1829 12.2554 11.6297 12.9357 11.6297C13.6157 11.6297 14.1689 12.1829 14.1689 12.8629C14.1691 13.5432 13.6157 14.0964 12.9357 14.0964C12.2553 14.0964 11.7022 13.5432 11.7022 12.8629ZM12.9357 12.842C12.924 12.842 12.9145 12.8514 12.9145 12.8629C12.9145 12.8857 12.9564 12.8862 12.9564 12.8629C12.9566 12.8514 12.9472 12.842 12.9357 12.842Z" fill="#F15A24"/>
</svg>
