<svg width="22" height="18" viewBox="0 0 22 18" fill="none" xmlns="http://www.w3.org/2000/svg">
<path fill-rule="evenodd" clip-rule="evenodd" d="M10.9935 0.527344C9.05296 0.527344 7.47425 2.10606 7.47425 4.04659C7.47425 5.98712 9.05296 7.56583 10.9935 7.56583C12.934 7.56583 14.5127 5.98712 14.5127 4.04659C14.5127 2.1061 12.934 0.527344 10.9935 0.527344ZM10.9935 6.38007C9.70679 6.38007 8.66 5.33329 8.66 4.04659C8.66 2.75992 9.70679 1.7131 10.9935 1.7131C12.2802 1.7131 13.327 2.75988 13.327 4.04659C13.327 5.33329 12.2802 6.38007 10.9935 6.38007ZM2.19569 6.43324C2.19569 4.98072 3.37737 3.79904 4.82988 3.79904C6.28239 3.79904 7.46408 4.98072 7.46408 6.43324C7.46408 7.88575 6.28235 9.06743 4.82988 9.06743C3.37737 9.06743 2.19565 7.88575 2.19569 6.43324ZM3.3814 6.43324C3.3814 7.23192 4.03116 7.88168 4.82984 7.88168C5.62853 7.88168 6.27828 7.23192 6.27828 6.43324C6.27828 5.63455 5.62853 4.9848 4.82984 4.9848C4.03116 4.9848 3.3814 5.63455 3.3814 6.43324ZM16.1666 9.39772H18.1475C19.7821 9.39772 21.1119 10.7275 21.1119 12.3621V15.5288C21.1119 16.5095 20.314 17.3074 19.3333 17.3074H2.65363C1.67289 17.3074 0.875 16.5095 0.875 15.5288V12.3621C0.875 10.7275 2.20482 9.39772 3.83939 9.39772H5.82031C6.08991 9.39772 6.35094 9.43456 6.59935 9.50231C7.08939 8.539 8.08985 7.87711 9.24268 7.87711H12.7442C13.897 7.87711 14.8975 8.539 15.3875 9.50231C15.636 9.43456 15.897 9.39772 16.1666 9.39772ZM6.27829 16.1217V10.8416C6.27829 10.7757 6.28122 10.7105 6.28548 10.6457C6.13711 10.6054 5.98126 10.5835 5.82031 10.5835H3.83939C2.85865 10.5835 2.06076 11.3814 2.06076 12.3622V15.5288C2.06076 15.8557 2.32672 16.1217 2.65363 16.1217H6.27829ZM7.46405 16.1217H14.5228V10.8415C14.5228 9.8608 13.725 9.0629 12.7442 9.0629H9.24268C8.26194 9.0629 7.46405 9.8608 7.46405 10.8415V16.1217ZM19.3333 16.1217C19.6602 16.1217 19.9261 15.8557 19.9261 15.5288V12.3621C19.9261 11.3814 19.1282 10.5835 18.1475 10.5835H16.1666C16.0056 10.5835 15.8498 10.6054 15.7014 10.6456C15.7057 10.7104 15.7086 10.7756 15.7086 10.8415V16.1217H19.3333ZM14.5228 6.43324C14.5228 4.98072 15.7046 3.79904 17.157 3.79904C18.6095 3.79904 19.7912 4.98072 19.7912 6.43324C19.7912 7.88575 18.6095 9.06743 17.157 9.06743C15.7046 9.06743 14.5229 7.88575 14.5228 6.43324ZM15.7086 6.43324C15.7086 7.23192 16.3584 7.88168 17.157 7.88168C17.9557 7.88168 18.6055 7.23192 18.6055 6.43324C18.6055 5.63455 17.9557 4.9848 17.157 4.9848C16.3584 4.9848 15.7086 5.63455 15.7086 6.43324Z" fill="#F15A24"/>
</svg>
