<svg width="52" height="54" viewBox="0 0 52 54" fill="none" xmlns="http://www.w3.org/2000/svg">
<g clip-path="url(#clip0)">
<path d="M25.5789 6.16728L20.0592 9.3938L19.2179 9.88515L7.339 16.8203C7.21117 16.8952 7.10506 17.0027 7.03131 17.1322C6.95756 17.2616 6.91876 17.4084 6.91882 17.5578V38.8621C6.91876 39.0115 6.95756 39.1583 7.03131 39.2877C7.10506 39.4172 7.21117 39.5247 7.339 39.5996L12.8587 42.8261L13.7 43.3175L25.5798 50.2545C25.7078 50.3288 25.8529 50.3679 26.0005 50.3679C26.1481 50.3679 26.2931 50.3288 26.4211 50.2545L44.661 39.5977C44.789 39.523 44.8952 39.4155 44.969 39.286C45.0427 39.1565 45.0814 39.0097 45.0812 38.8602V17.5569C45.081 17.5073 45.0679 17.4585 45.0433 17.4156C45.0186 17.3726 44.9833 17.337 44.9408 17.3122C44.8983 17.2874 44.85 17.2743 44.801 17.2742C44.7519 17.2741 44.7036 17.287 44.661 17.3117L39.1431 20.5382L38.3018 21.0305L26.4211 27.962C26.2932 28.0367 26.1482 28.0761 26.0005 28.0761C25.8528 28.0761 25.7077 28.0367 25.5798 27.962L20.0601 24.7355C19.9955 24.698 19.9189 24.6879 19.847 24.7074C19.7751 24.727 19.7137 24.7745 19.6764 24.8396C19.6522 24.883 19.6394 24.9318 19.639 24.9816V31.4356C19.6389 31.5851 19.6778 31.7319 19.7518 31.8614C19.8257 31.9909 19.932 32.0984 20.0601 32.173L25.5798 35.3996C25.7077 35.4743 25.8528 35.5137 26.0005 35.5137C26.1482 35.5137 26.2932 35.4743 26.4211 35.3996L38.3018 28.4625C38.3446 28.4379 38.3929 28.425 38.4421 28.4252C38.4913 28.4253 38.5396 28.4385 38.5822 28.4634C38.6248 28.4883 38.6602 28.524 38.6849 28.5671C38.7096 28.6101 38.7227 28.6589 38.7229 28.7087V35.1544C38.723 35.3039 38.6841 35.4507 38.6102 35.5802C38.5362 35.7097 38.4299 35.8172 38.3018 35.8918L26.4211 42.8206C26.2932 42.8953 26.1482 42.9347 26.0005 42.9347C25.8528 42.9347 25.7077 42.8953 25.5798 42.8206L13.7 35.8835C13.5722 35.8087 13.4661 35.7011 13.3923 35.5717C13.3186 35.4422 13.2798 35.2955 13.2798 35.1461V21.2711C13.2797 21.1217 13.3184 20.9748 13.3922 20.8454C13.4659 20.7159 13.5721 20.6084 13.7 20.5336L25.5789 13.5975C25.7068 13.5227 25.8519 13.4834 25.9996 13.4834C26.1472 13.4834 26.2923 13.5227 26.4202 13.5975L31.9408 16.824C32.0687 16.8988 32.2138 16.9382 32.3615 16.9382C32.5092 16.9382 32.6542 16.8988 32.7821 16.824L38.3018 13.5975C38.3659 13.5591 38.4123 13.4966 38.4309 13.4237C38.4495 13.3508 38.4388 13.2734 38.4012 13.2085C38.3768 13.1664 38.3423 13.1312 38.3009 13.1061L32.7821 9.87962L31.9408 9.38827L26.4202 6.16175C26.2923 6.08698 26.1472 6.04761 25.9996 6.04761C25.8519 6.04761 25.7068 6.08698 25.5789 6.16175V6.16728Z" fill="url(#paint0_linear)"/>
<path d="M26.0292 -0.000407799C25.851 -0.00343328 25.6753 0.0421019 25.5206 0.131419L2.20754 13.74C2.05854 13.8263 1.93484 13.9511 1.84902 14.1015C1.76321 14.2519 1.71834 14.4227 1.719 14.5964V19.6924C1.65793 19.992 1.4082 20.1875 1.12565 20.2834C0.790125 20.4324 0.504907 20.6773 0.304961 20.9879C0.105016 21.2986 -0.000967318 21.6615 6.65312e-06 22.0321V34.3851C-0.000354041 34.6364 0.0483555 34.8854 0.143341 35.1176C0.238326 35.3499 0.377717 35.5609 0.553517 35.7385C0.729316 35.9162 0.938065 36.0569 1.16779 36.1528C1.39751 36.2486 1.64368 36.2977 1.89218 36.297H3.06977C3.21314 36.2693 3.34539 36.1998 3.4503 36.0971C3.55521 35.9945 3.62823 35.8631 3.66039 35.719V15.1615L26.0027 2.11158L48.3442 15.1624V41.2567L34.1256 49.5599L31.4824 51.1013C31.3305 51.1898 31.1974 51.3077 31.0906 51.4483C30.9838 51.5889 30.9055 51.7494 30.86 51.9206C30.8146 52.0918 30.8029 52.2704 30.8257 52.4461C30.8485 52.6219 30.9053 52.7914 30.9929 52.945L31.2053 53.3137C31.2926 53.4675 31.4091 53.6023 31.5481 53.7105C31.6871 53.8186 31.8458 53.898 32.0151 53.944C32.1845 53.9899 32.3612 54.0017 32.535 53.9785C32.7088 53.9553 32.8764 53.8976 33.0282 53.8088L37.446 51.2276C37.6324 51.1191 37.79 50.9666 37.9054 50.7831C38.0208 50.5996 38.0905 50.3906 38.1086 50.1739V50.148C38.0904 49.8623 38.136 49.5802 38.3292 49.3608L38.0065 49.5452L49.797 42.6579C49.9448 42.5723 50.0676 42.4488 50.1532 42.2999C50.2388 42.1511 50.2841 41.982 50.2847 41.8098V36.7119C50.3457 36.4123 50.5946 36.2168 50.8771 36.121C51.21 35.9722 51.4932 35.7291 51.6924 35.421C51.8917 35.113 51.9985 34.7532 52 34.3851V22.0321C52.0009 21.6605 51.8944 21.2968 51.6936 20.9856C51.4928 20.6744 51.2065 20.4294 50.8698 20.2806H50.8789C50.5964 20.1884 50.3466 19.9902 50.2847 19.6897V14.5945C50.2851 14.4211 50.2402 14.2507 50.1545 14.1005C50.0689 13.9503 49.9456 13.8256 49.797 13.739L26.4867 0.130497C26.3481 0.048922 26.1913 0.00390797 26.031 -0.000407799H26.0292Z" fill="url(#paint1_linear)"/>
</g>
<defs>
<linearGradient id="paint0_linear" x1="6.91882" y1="50.3679" x2="46.1626" y2="48.2504" gradientUnits="userSpaceOnUse">
<stop stop-color="#FF0A00"/>
<stop offset="1" stop-color="#FF6000"/>
</linearGradient>
<linearGradient id="paint1_linear" x1="17.8696" y1="46.6847" x2="36.6819" y2="7.06907" gradientUnits="userSpaceOnUse">
<stop stop-color="#CECECE"/>
<stop offset="1" stop-color="#EBEBEB"/>
</linearGradient>
<clipPath id="clip0">
<rect width="52" height="54" fill="white"/>
</clipPath>
</defs>
</svg>
